<svg id="time-out"  x="0px" y="0px" viewBox="0 0 120.6 100" xmlSpace="preserve" className={styles.icon}>
    <g>
    <g>
    <path d="M120.6,50L84.9,14.4v12.3h-38h-5.3H10.3c-0.4,1.7-0.8,3.4-1.2,5.2h81V27l23,23l-23,23v-4.9h-81c0.3,1.8,0.7,3.6,1.2,5.2
    h31.2h5.3h38v12.3L120.6,50z"/>
    </g>
    <path d="M41.6,75.1h-2.8c-3.5,12.3-9.5,19.7-15.1,19.7c-5.9,0-12.2-8.1-15.6-21.4c-0.4-1.7-0.8-3.4-1.2-5.2
    c-1-5.4-1.6-11.5-1.6-18.1c0-6.6,0.6-12.7,1.6-18.1c0.3-1.8,0.7-3.6,1.2-5.2c3.5-13.4,9.7-21.4,15.6-21.4c5.7,0,11.6,7.4,15.1,19.7
    h2.8h2.6C40.1,9.9,32.5,0,23.6,0C10.4,0,0,22,0,50c0,28,10.4,50,23.6,50c8.9,0,16.5-9.9,20.5-24.9H41.6z"/>
    </g>
</svg>